<?xml version="1.0" encoding="UTF-8"?><svg id="FC.Logos" xmlns="http://www.w3.org/2000/svg" viewBox="0 0 1416.9 600"><defs><style>.cls-1{fill:#fff;}</style></defs><path id="Logo.1Color" class="cls-1" d="M287.61,509.49c11.15,11.4,12.32,15.66,2.76,22.82-29.72,22.28-65.03,17.18-89.74-1.74-24.01-18.39-69.11-71.92-100.53-182.47-.52,.17-1.04,.34-1.56,.51-22.16,7.24-44.13,18.53-63.37,31.62-4.63,3.15-13.01,7.72-19.17,1.86C-7.26,359.95,.07,313.12,5.78,292.81c7.57-26.94,47.37-31.79,74.43-35.22-2.13-13.04-4.07-26.61-5.79-40.77C59.75,95.7,127.63,16.62,221.13,3.58c39.69-5.54,80.52,.55,109.52,29.79,31.73,31.99,35.1,78.77,.62,110.09-23.45,21.3-68.86,23.09-86.34,7.43-4.76-4.27-2.88-8.22,9.56-15.67,26.32-15.77,34.25-40.25,26.1-67.61-10.91-36.64-50.59-34.47-70.64-4.67-31.04,46.14-36.98,113.58-29.59,165.97,.71,5.02,1.57,10.66,2.55,16.72,.64-.09,1.27-.17,1.91-.26,26.58-3.71,56.2-12.11,69.41-17.37,12.67-5.04,20.2,2.07,21.48,18.25,2.91,36.65-32.2,55.6-79.49,71.58,2.09,10.12,4.11,19.28,5.88,26.53,24.88,101.84,56.5,135.47,85.5,165.14Zm997.65,70.97c-9.62,15.11-30.2,23.41-52.55,17.77-29.62-7.48-47.15-31.12-63.5-50.52-26.48-31.42-66.49-51.86-125.95-39.44-35.68,7.45-94.42,27.85-165.72,25.27-70.89-2.57-188.49-34.47-206.55-190.86-9.99-86.5,11.33-166.87,51.81-236.47C767.6,29.15,834.86,8.16,870.16,2.07c38.5-6.64,76.28,2.57,103.25,29.44,21.91,21.83,21.45,59.9,8.01,83.65-14.23,25.13-41.08,35.24-62.02,36.54-13.97,.87-25.45-1.56-33.66-6.54-10.79-6.55-14.27-10.88-.6-16.87,53.04-23.27,53.3-119.19-16.32-69.52-52.25,37.28-88.62,139.27-95.88,229.8-8.7,108.51,37.03,222.69,147.86,203.02,40.9-7.26,78.8-20.09,118.14-31.96,22.03-6.65,59.74-14.04,79.6-14.75,48.01-1.71,90.97,6.66,132.05,36.79,25.81,18.93,59.98,59.05,34.66,98.79Zm-48.64-77.95c-14.55-11.57-32.98-18.75-32.98-18.75,8.94,11.27,10.31,14.39,13.73,25.21,0,0-13.93-9.69-38.1-13.71,10.35,11.58,18.32,23.54,26.54,30.9-6.38,.49-27.27-2.92-27.27-2.92,11.02,8.06,26.84,25.93,34.17,34.15,8.35,9.37,22.8,19.9,39.08,14.89,10.58-3.26,13.95-10.79,15.26-19.32,2.92-18.95-13.85-37.25-30.45-50.46Zm-574.58-32.93c-58.59-34.22-57.54-132.38-56.83-270.97,0-1.29,.05-3.37,.12-5.91,13.26-.32,27.72,0,44.41,.85,14.33,.73,17.94-14.9,21.2-32.82,4.18-22.99-13.6-24.07-57.02-25.4-2.15-.07-4.22-.13-6.26-.19,2.57-42.58,5.98-91.33-19.25-101.58-28.1-11.42-72.6,1.35-85.66,7.64-14.86,7.16-8.48,16.24-4.77,27.29,7.94,23.63,12.14,46.94,14.17,71.12-18.5,2.19-42.6,6.96-59.37,12.04-11.1,3.36-14.11,11.64-11.48,24.79,2.76,13.78,6.34,25.66,13.57,35.85,9.14,12.87,22.8,7.5,56.79-3.11,1.19-.37,2.35-.73,3.52-1.08,.33,7.17,.71,14.75,1.15,22.44,9.35,164.03,27.11,235.09,82.89,262.78,23.54,11.69,50.13,5.82,64.14-12.64,2.2-3.72,3.7-8.17-1.33-11.11Zm-163.16-79.38c3.28,26.32,8.18,60.88,2.7,79.52-3.76,12.81-17.52,19.02-33.9,22-19.07,3.47-37.84,10.18-39.28-7.36-1.28-15.52-1.55-23.35-1.12-35.58-13.38,28.49-30.31,52-70.35,54.71-24.66,1.67-47.29-7.76-63.32-28.27-29.49-37.72-18.24-95.1,24.47-117.86,44.46-23.69,87.05-11.05,88.43-44.93,1.01-24.97-12.09-58.36-42.29-63.76-11-1.97-19.2,2.48-21.22,14.57-3.57,21.38,12.31,28.62,29.02,32.9,3.38,.87,4.1,5.38,2.53,8.58-15.27,31.08-62.13,31-74.18,6.69-12.49-25.2-.42-66.47,27.97-85.38,21.29-14.18,47.46-18.23,72.3-13.7,74.33,13.54,89.1,104.63,98.23,177.89Zm-81.31-29.41s-4.2,5.37-12.77,10.57c-16.89,10.25-36.34,10.3-42.64,31.71-2.35,7.98-1.25,18.59,4.97,26.04,8.12,9.72,23.43,9.75,31.89,4.54,22.59-13.89,22.41-49.33,18.55-72.86ZM1004.16,174.58c67.57,33.78,56.71,133.17,52.55,188.02-1.84,24.24-4.44,58.41-15.57,66.26-10.91,7.69-24.51,12.17-49.35,17.9-5.67,1.31-40.43,8.13-39.99-7.54,.46-16.32,9.91-31.32,9.31-36.03-15.93,25.16-42.24,40.88-82.18,34.89-21.57-3.23-41.63-16.35-51.28-40.53-17.76-44.46,6.81-89.45,57.18-100.46,58.98-12.89,91.21,3.43,96.62-28.01,4.24-24.63,3.65-54.88-19.34-64.91-10.25-4.47-21.88-1.23-27.78,6.39-12.35,15.97-1.88,34.93,18.96,37.31,7.28,.83,4.85,11.12-3.62,16.98-13.74,9.5-37.37,10.16-51.04,2.58-10.93-6.07-18.53-17.25-19.06-32.36-.06-28.12,16.97-52.43,49.52-62.65,24.4-7.66,52.48-9.15,75.07,2.14Zm-27.23,143.05c-17.77,15.27-44.04,4.57-64.88,19.96-10.58,7.82-13.2,22.04-7.39,32.04,8.38,14.41,23.52,13.99,36.33,9.22,23.58-8.78,30.83-29.39,35.94-61.22Zm104.86-130.06c6.25,.33,14.41,.86,24.13,1.99-1.31,8.02-2.9,17.68-5.05,31.4-6.46,41.19-10.76,79.39-9.21,113.66,1.07,23.63,6.12,48.49,15.16,62.94,18.72,29.92,48.17,34.68,72.35,23.27,9.79-4.62,13.74-10.6,13.02-16.4-.49-3.97-5.2-5.67-10.47-10.89-32.79-32.46-4.01-113.56,5.43-154.47,2.42-10.48,4.64-18.97,6.87-27.15,13.41,5.34,27.48,11.85,41.99,19.85,9.73,5.37,14.87,2.4,20.12-5.38,8.12-12.07,14.65-19.63,22.73-31.73,4.49-6.72,5.51-16.81-2.33-22.57-7.44-5.46-27-17.04-64.71-26.87,8.23-28.7,20.18-71,13.06-83.97-10.44-19.02-45.06-28.12-73.07-28.07-19.25,.03-25.69,2.14-28.72,29.04-2.37,21.02-5.82,46.15-8.81,68.32-23.36-1.25-43.04-.36-61.63,1.96-12.77,1.59-9.67,23.75-6.07,42.95,2.74,14.59,12.97,10.95,35.24,12.12Zm322.19,165.09c-18.26-27.22-44.07-30.26-72.19-41.4-19.89-7.88-28.93-27.08-20.85-49,6.64-18,29.98-28.87,44.37-16.08,12.1,11.48,2.24,30.53-10.61,36.88-5.61,2.9-6.81,6.15-1.65,9.78,31.57,22.2,85.18-3.16,70.86-44.18-21.54-61.74-127.58-47.49-157.05,5.88-12.52,22.66-15.97,53.83-.26,76.15,17.66,25.09,33.72,24.27,57.25,38.57,12.27,7.45,18.36,16.03,19.55,28.43,2.47,25.64-18.02,39.5-35.52,38.49-20.89-1.21-40.91-23.03-17.59-43.66,3.55-3.14,4.1-8.56,1.28-12.38-9.15-12.37-22.18-21.26-34.21-21.57-23.52-.6-41.4,19.75-35.03,46.12,6.76,27.97,33.99,45.3,55.24,55.98,31.07,15.61,84.8,18.19,117.45-6.22,34.59-25.86,41.27-68.53,18.97-101.78Z"/></svg>